<svg width="151" height="38" viewBox="0 0 151 38" fill="none" xmlns="http://www.w3.org/2000/svg">
<path fill-rule="evenodd" clip-rule="evenodd" d="M43.127 17.1933C43.127 15.6078 43.5233 14.1443 44.3161 12.8027C45.1393 11.4611 46.2675 10.3787 47.7005 9.5555C49.1031 8.79324 50.597 8.41211 52.1825 8.41211C53.7985 8.41211 55.3078 8.80849 56.7104 9.60123C58.1129 10.4245 59.2411 11.5374 60.0948 12.9399C60.8876 14.3425 61.2839 15.8518 61.2839 17.4677C61.2839 19.1142 60.8723 20.6387 60.0491 22.0413C59.2258 23.4134 58.1282 24.511 56.7561 25.3342C55.384 26.1575 53.8595 26.5691 52.1825 26.5691C50.2617 26.5691 48.5085 25.9898 46.923 24.8311V30.9597C46.6943 31.2799 46.2827 31.9201 45.5052 32.3775C44.499 32.9721 43.5386 32.9721 43.127 32.9721C43.127 27.7277 43.127 22.4682 43.127 17.1933ZM47.609 20.1204C48.0968 20.9131 48.7372 21.5534 49.5299 22.0413C50.3227 22.5291 51.2069 22.773 52.1825 22.773C53.1277 22.773 54.012 22.5291 54.8352 22.0413C55.6585 21.5534 56.314 20.9131 56.8019 20.1204C57.2592 19.3276 57.4879 18.4434 57.4879 17.4677C57.4879 16.5225 57.2439 15.6536 56.7561 14.8608C56.2987 14.0376 55.6585 13.382 54.8352 12.8942C54.0425 12.4063 53.1582 12.1624 52.1825 12.1624C51.2678 12.1624 50.3989 12.4063 49.5756 12.8942C48.7524 13.382 48.1121 14.0223 47.6548 14.8151C47.1669 15.6078 46.923 16.4921 46.923 17.4677C46.923 18.4129 47.1516 19.2972 47.609 20.1204Z" fill="#440066"/>
<path d="M97.7348 8.41211V18.5654C97.7348 20.1661 97.3689 21.5382 96.5914 22.773C95.7987 23.9927 94.762 24.9379 93.4814 25.6087C92.8411 25.944 92.1703 26.188 91.469 26.3404V32.9721H90.2799C88.8621 32.9721 87.7187 31.8287 87.7187 30.4109V26.4319C86.8955 26.2489 86.118 25.9745 85.3862 25.6087C84.1056 24.9379 83.0689 23.9927 82.2762 22.773C81.4987 21.5382 81.1328 20.1661 81.1328 18.5654V8.41211H82.5049C83.8312 8.41211 84.8831 9.46403 84.8831 10.7446V18.5654C84.8831 19.8917 85.3405 20.8979 86.2094 21.6754C86.8802 22.2242 87.6425 22.5749 88.4962 22.7273C88.5267 22.7273 88.5572 22.7273 88.5877 22.7273C88.7097 22.7578 88.8468 22.773 88.9993 22.773C89.0298 22.773 89.0755 22.773 89.1365 22.773C89.228 22.773 89.3042 22.773 89.3652 22.773H89.5024C89.5939 22.773 89.6854 22.773 89.7768 22.773C89.8226 22.773 89.8683 22.773 89.8683 22.773C90.0207 22.773 90.1732 22.7578 90.3256 22.7273C90.4476 22.6968 90.5848 22.6663 90.7373 22.6358C91.4233 22.4529 92.1093 22.1328 92.6581 21.6754C93.5728 20.8979 93.9845 19.8917 93.9845 18.5654V10.8361C93.9845 9.46403 95.0821 8.41211 96.4542 8.41211H97.7348Z" fill="#440066"/>
<path d="M89.1367 22.7734C89.2282 22.8039 89.3349 22.8192 89.4568 22.8192H89.3654C89.3044 22.8192 89.2282 22.8039 89.1367 22.7734Z" fill="#440066"/>
<path d="M90.783 26.4775C90.783 26.4775 90.783 26.4928 90.783 26.5233C90.6611 26.5233 90.5544 26.5233 90.4629 26.5233C90.5544 26.5233 90.6611 26.508 90.783 26.4775Z" fill="#440066"/>
<path d="M89.457 22.8192C89.5485 22.8192 89.6553 22.8039 89.7772 22.7734C89.6857 22.8039 89.5943 22.8192 89.5028 22.8192H89.457Z" fill="#440066"/>
<path fill-rule="evenodd" clip-rule="evenodd" d="M113.01 24.8312C111.394 25.9898 109.626 26.5691 107.705 26.5691C106.089 26.5691 104.58 26.1575 103.177 25.3343C101.775 24.511 100.677 23.3981 99.8841 21.9956C99.0304 20.6235 98.6035 19.1143 98.6035 17.4678C98.6035 15.8518 99.0152 14.3425 99.8384 12.94C100.662 11.5374 101.775 10.4245 103.177 9.60127C104.763 8.68656 106.516 8.29019 108.437 8.41215C109.58 8.50362 110.723 8.82377 111.775 9.32686C113.391 10.1501 114.657 11.3087 115.571 12.8028C116.395 14.1443 116.806 15.6079 116.806 17.1934L116.761 23.5049C116.761 25.1513 115.434 26.4777 113.788 26.4777H113.01V24.8312ZM112.37 14.9523C111.882 14.0681 111.211 13.3668 110.358 12.8485C109.534 12.3606 108.62 12.132 107.613 12.1625C106.79 12.1625 105.967 12.3911 105.235 12.8028C104.351 13.2906 103.65 13.9461 103.131 14.7694C102.643 15.5926 102.4 16.5073 102.4 17.5135C102.4 18.3367 102.628 19.16 103.04 19.9375C103.528 20.8217 104.199 21.5077 105.052 21.9956C105.876 22.5139 106.79 22.7579 107.796 22.7274C108.62 22.7274 109.443 22.4987 110.175 22.0871C111.059 21.5992 111.76 20.9284 112.278 20.0747C112.797 19.2515 113.041 18.3367 113.01 17.3306C112.964 16.5073 112.782 15.6841 112.37 14.9523Z" fill="#440066"/>
<path fill-rule="evenodd" clip-rule="evenodd" d="M146.351 24.8312C144.735 25.9898 142.967 26.5691 141.046 26.5691C139.43 26.5691 137.921 26.1575 136.518 25.3343C135.116 24.511 134.018 23.3981 133.225 21.9956C132.402 20.6235 131.99 19.1143 131.99 17.4678C131.99 15.8518 132.387 14.3425 133.179 12.94C134.003 11.5374 135.116 10.4245 136.518 9.60127C138.134 8.68656 139.887 8.29019 141.778 8.41215C142.967 8.50362 144.11 8.82377 145.116 9.32686C146.732 10.1501 147.998 11.3087 148.912 12.8028C149.736 14.1443 150.147 15.6079 150.147 17.1934L150.102 23.5049C150.102 25.1513 148.775 26.4777 147.129 26.4777H146.351V24.8312ZM145.711 14.9523C145.223 14.0681 144.552 13.3668 143.699 12.8485C142.875 12.3606 141.961 12.132 140.954 12.1625C140.131 12.1625 139.308 12.3911 138.576 12.8028C137.692 13.2906 137.006 13.9461 136.518 14.7694C136 15.5926 135.756 16.5073 135.786 17.5135C135.786 18.3367 135.969 19.16 136.381 19.9375C136.869 20.8217 137.539 21.5077 138.393 21.9956C139.216 22.5139 140.131 22.7579 141.137 22.7274C142.006 22.7274 142.83 22.4987 143.561 22.0871C144.446 21.5992 145.147 20.9284 145.665 20.0747C146.153 19.2515 146.382 18.3367 146.351 17.3306C146.351 16.5073 146.122 15.6841 145.711 14.9523Z" fill="#440066"/>
<path fill-rule="evenodd" clip-rule="evenodd" d="M76.5141 24.8312C74.8981 25.9898 73.1297 26.5691 71.2088 26.5691C69.5623 26.5691 68.053 26.1575 66.681 25.3343C65.2784 24.511 64.1655 23.3981 63.3423 21.9956C62.519 20.6235 62.1074 19.1143 62.1074 17.4678C62.1074 15.8518 62.519 14.3425 63.3423 12.94C64.1655 11.5374 65.2784 10.4245 66.681 9.60127C68.2665 8.68656 70.0197 8.29019 71.9405 8.41215C73.0839 8.50362 74.2273 8.82377 75.2792 9.32686C76.8647 10.1501 78.1148 11.3087 79.0295 12.8028C79.8833 14.1443 80.3101 15.6079 80.3101 17.1934L80.2644 23.5049C80.2644 25.1513 78.9381 26.4777 77.2916 26.4777H76.5141V24.8312ZM75.8738 14.9523C75.3859 14.0681 74.7151 13.3668 73.8614 12.8485C73.0382 12.3606 72.1235 12.132 71.1173 12.1625C70.294 12.1625 69.4251 12.3911 68.7391 12.8028C67.8548 13.2906 67.1536 13.9461 66.6352 14.7694C66.1474 15.5926 65.9034 16.5073 65.9034 17.5135C65.9034 18.3367 66.1321 19.16 66.5437 19.9375C67.0316 20.8217 67.7024 21.5077 68.5561 21.9956C69.3489 22.5139 70.2636 22.7579 71.3002 22.7274C72.1235 22.7274 72.9467 22.4987 73.6785 22.0871C74.5627 21.5992 75.264 20.9284 75.7823 20.0747C76.2702 19.2515 76.5141 18.3367 76.5141 17.3306C76.4684 16.5073 76.2397 15.6841 75.8738 14.9523Z" fill="#440066"/>
<path d="M127.005 11.2935V12.2996H121.974C119.962 12.2996 118.316 10.6531 118.316 8.64079C118.316 8.50358 118.453 8.41211 118.544 8.41211H131.991C132.128 8.41211 132.219 8.50358 132.219 8.64079V9.82991C132.219 10.6074 131.945 11.3392 131.533 11.9337L122.706 23.5048V22.5444H128.972C130.939 22.5444 132.539 24.1451 132.539 26.1117V26.2947C132.539 26.4319 132.448 26.5234 132.311 26.5234H118.041C117.904 26.5234 117.812 26.4319 117.812 26.2947V24.9226C117.812 23.9164 118.133 23.0017 118.681 22.2242L127.005 11.2935Z" fill="#440066"/>
<path d="M18.4771 37.5C8.27813 37.5 0 29.2219 0 18.9771C0 8.77812 8.27813 0.5 18.4771 0.5C28.7219 0.5 37 8.77812 37 18.9771C37 29.2219 28.7219 37.5 18.4771 37.5Z" fill="#8CFF73"/>
<path d="M30.0027 30.7769C29.3624 26.9809 27.9903 24.6941 25.795 23.7336C22.7765 22.4073 19.2548 24.0995 15.7789 25.746C15.0014 26.1119 13.7208 26.7064 12.6232 27.1181C12.0286 27.3925 11.434 26.7065 11.7085 26.1119C12.8518 23.8709 15.1844 20.4407 18.0657 17.4221C20.1238 15.3183 22.4563 13.4889 25.0633 11.9339V19.0229C25.109 20.3035 26.1609 21.3554 27.4415 21.3554H28.4019C28.8135 21.3554 29.1337 21.0353 29.1337 20.6236L29.0879 6.99445C29.0879 6.58283 28.7221 6.2627 28.3105 6.2627H13.9038C13.4922 6.2627 13.172 6.58283 13.172 6.99445V7.68048C13.172 9.14402 14.3154 10.2874 15.7332 10.2874H20.2153C18.3859 11.5985 16.7089 13.0468 15.1844 14.6323C12.9434 16.9191 10.6566 19.8919 9.10156 22.5445C7.63802 24.9685 5.94579 28.4444 7.82094 30.4568C8.00388 30.6854 8.23261 30.8684 8.55275 31.0513C11.0682 32.4691 14.2239 30.9599 17.5169 29.3591C19.8951 28.2615 22.8679 26.8437 24.1943 27.4382C24.8346 27.7126 25.3377 28.5816 25.7036 29.9994C25.8408 30.4568 26.0237 30.7769 26.3438 31.0971C26.9384 31.6459 27.7159 31.7374 28.3105 31.7374C28.6763 31.7069 29.027 31.6611 29.3624 31.6001C29.774 31.5544 30.0484 31.1885 30.0027 30.7769Z" fill="#440066"/>
</svg>
